<svg width="358" height="276" viewBox="0 0 358 276" fill="none" xmlns="http://www.w3.org/2000/svg">
<path d="M144.57 112.06C144.57 112.06 93.1501 72.46 82.0301 88.36C70.9101 104.26 113.12 153.36 113.12 153.36" fill="#61DA80"/>
<path d="M144.57 112.06C144.57 112.06 93.1501 72.46 82.0301 88.36C70.9101 104.26 113.12 153.36 113.12 153.36" stroke="black" stroke-width="6" stroke-linecap="round" stroke-linejoin="round"/>
<path d="M246.94 37C246.94 37 255.94 -3.93999 233.2 4.72001C210.46 13.38 223.66 50 223.66 50" fill="#61DA80"/>
<path d="M246.94 37C246.94 37 255.94 -3.93999 233.2 4.72001C210.46 13.38 223.66 50 223.66 50" stroke="black" stroke-width="6" stroke-linecap="round" stroke-linejoin="round"/>
<circle cx="233.45" cy="151.64" r="120.78" fill="#61DA80" stroke="black" stroke-width="6" stroke-linecap="round" stroke-linejoin="round"/>
<path d="M168.13 129.36C161.18 137.73 172.3 144.65 186.19 141.81C196 152.26 212.67 156.81 211.5 144.26" stroke="black" stroke-width="6" stroke-linecap="round" stroke-linejoin="round"/>
<ellipse cx="167.005" cy="101.211" rx="13.61" ry="8.58" transform="rotate(-71.41 167.005 101.211)" fill="black"/>
<ellipse cx="228.024" cy="121.726" rx="13.61" ry="8.58" transform="rotate(-71.41 228.024 121.726)" fill="black"/>
<path d="M171.44 140.9C171.44 140.9 162 164.09 178.64 169.69C195.28 175.29 201.64 151.38 201.64 151.38" stroke="black" stroke-width="6" stroke-linecap="round" stroke-linejoin="round"/>
<ellipse cx="206.432" cy="55.4609" rx="15.34" ry="10.18" transform="rotate(-10.86 206.432 55.4609)" fill="#BAFFCC"/>
<path d="M301.26 55.2899C301.26 55.2899 318.79 17.2199 331.71 37.8699C344.63 58.5199 312 79.6999 312 79.6999" fill="#61DA80"/>
<path d="M301.26 55.2899C301.26 55.2899 318.79 17.2199 331.71 37.8699C344.63 58.5199 312 79.6999 312 79.6999" stroke="black" stroke-width="6" stroke-linecap="round" stroke-linejoin="round"/>
<path d="M157.07 115.74L36.6099 101.55L63.3099 22.13L167.87 83.61C176.52 87.41 166.26 117.94 157.07 115.74Z" fill="#FCD97B" stroke="black" stroke-width="6" stroke-linecap="round" stroke-linejoin="round"/>
<path d="M230.29 138L108.21 125.63L134.92 46.21L239.66 110.13C247.09 113.56 238.29 139.74 230.29 138Z" fill="#FCD97B" stroke="black" stroke-width="6" stroke-linecap="round" stroke-linejoin="round"/>
<ellipse cx="49.97" cy="61.8505" rx="41.89" ry="37.77" transform="rotate(-71.41 49.97 61.8505)" fill="#FCD97B" stroke="black" stroke-width="6" stroke-linecap="round" stroke-linejoin="round"/>
<ellipse cx="121.582" cy="85.9334" rx="41.89" ry="37.77" transform="rotate(-71.41 121.582 85.9334)" fill="#FCD97B" stroke="black" stroke-width="6" stroke-linecap="round" stroke-linejoin="round"/>
<ellipse cx="121.582" cy="85.9335" rx="26.92" ry="24.27" transform="rotate(-71.41 121.582 85.9335)" fill="black"/>
<ellipse cx="49.9699" cy="61.8506" rx="26.92" ry="24.27" transform="rotate(-71.41 49.9699 61.8506)" fill="black"/>
<ellipse cx="44.7408" cy="54.0348" rx="10.36" ry="9.34" transform="rotate(-71.41 44.7408 54.0348)" fill="white"/>
<ellipse cx="55.3816" cy="76.4736" rx="6.75" ry="6.09" transform="rotate(-71.41 55.3816 76.4736)" fill="white"/>
<ellipse cx="125.817" cy="101.213" rx="6.75" ry="6.09" transform="rotate(-71.41 125.817 101.213)" fill="white"/>
<ellipse cx="115.926" cy="77.9811" rx="10.36" ry="9.34" transform="rotate(-71.41 115.926 77.9811)" fill="white"/>
<path d="M247.29 172.39C247.29 172.39 215.29 115.93 198.85 126.26C182.41 136.59 202.27 198.26 202.27 198.26" fill="#61DA80"/>
<path d="M247.29 172.39C247.29 172.39 215.29 115.93 198.85 126.26C182.41 136.59 202.27 198.26 202.27 198.26" stroke="black" stroke-width="6" stroke-linecap="round" stroke-linejoin="round"/>
</svg>
